HIERARCHY
ROOT Hips
{
  OFFSET -32.5998 29.0326 120.673
  CHANNELS 6 Xposition Yposition Zposition Zrotation Xrotation Yrotation
  JOINT LeftUpLeg
  {
    OFFSET 8.64259 1.95398 -2.38835
    CHANNELS 3 Zrotation Xrotation Yrotation
    JOINT LeftLeg
    {
      OFFSET 43.7702 0 0
      CHANNELS 3 Zrotation Xrotation Yrotation
      JOINT LeftFoot
      {
        OFFSET 40.6238 0 0
        CHANNELS 3 Zrotation Xrotation Yrotation
        JOINT LeftToeBase
        {
          OFFSET 12.7242 0 0
          CHANNELS 3 Zrotation Xrotation Yrotation
          End Site
          {
            OFFSET 0 0 0
          }
        }
      }
    }
  }
  JOINT RightUpLeg
  {
    OFFSET -8.2249 1.95398 -2.59336
    CHANNELS 3 Zrotation Xrotation Yrotation
    JOINT RightLeg
    {
      OFFSET 43.5653 0 0
      CHANNELS 3 Zrotation Xrotation Yrotation
      JOINT RightFoot
      {
        OFFSET 40.6238 0 0
        CHANNELS 3 Zrotation Xrotation Yrotation
        JOINT RightToeBase
        {
          OFFSET 12.7242 0 0
          CHANNELS 3 Zrotation Xrotation Yrotation
          End Site
          {
            OFFSET 0 0 0
          }
        }
      }
    }
  }
  JOINT Spine
  {
    OFFSET 0.165834 0.87714 6.61349
    CHANNELS 3 Zrotation Xrotation Yrotation
    JOINT Spine1
    {
      OFFSET 7.38963 1.71661e-005 0
      CHANNELS 3 Zrotation Xrotation Yrotation
      JOINT Spine2
      {
        OFFSET 11.9445 1.14441e-005 0
        CHANNELS 3 Zrotation Xrotation Yrotation
        JOINT Spine3
        {
          OFFSET 14.7254 4.19617e-005 0
          CHANNELS 3 Zrotation Xrotation Yrotation
          JOINT Spine4
          {
            OFFSET 10.9679 0 0
            CHANNELS 3 Zrotation Xrotation Yrotation
            JOINT RightShoulder
            {
              OFFSET 2.46616 -1.6653 3.69651
              CHANNELS 3 Zrotation Xrotation Yrotation
              JOINT RightArm
              {
                OFFSET 13.0012 0 0
                CHANNELS 3 Zrotation Xrotation Yrotation
                JOINT RightForeArm
                {
                  OFFSET 28.7848 1.62311e-005 0
                  CHANNELS 3 Zrotation Xrotation Yrotation
                  JOINT RightHand
                  {
                    OFFSET 26.5688 1.62095e-005 0
                    CHANNELS 3 Zrotation Xrotation Yrotation
                    End Site
                    {
                      OFFSET 0 0 0
                    }
                  }
                }
              }
            }
            JOINT LeftShoulder
            {
              OFFSET 2.38034 -1.29275 -3.7523
              CHANNELS 3 Zrotation Xrotation Yrotation
              JOINT LeftArm
              {
                OFFSET 16.3182 6.07031e-005 0
                CHANNELS 3 Zrotation Xrotation Yrotation
                JOINT LeftForeArm
                {
                  OFFSET 27.0901 0 0
                  CHANNELS 3 Zrotation Xrotation Yrotation
                  JOINT LeftHand
                  {
                    OFFSET 24.5451 1.51738e-005 0
                    CHANNELS 3 Zrotation Xrotation Yrotation
                    End Site
                    {
                      OFFSET 0 0 0
                    }
                  }
                }
              }
            }
            JOINT Neck
            {
              OFFSET 5.0226 -0.0266342 0
              CHANNELS 3 Zrotation Xrotation Yrotation
              JOINT Head
              {
                OFFSET 6.69364 2.86102e-005 0
                CHANNELS 3 Zrotation Xrotation Yrotation
                End Site
                {
                  OFFSET 0 0 0
                }
              }
            }
          }
        }
      }
    }
  }
}
MOTION
Frames:	6
Frame Time:	0.0416667
47.8751 102.096 -256.716 -113.84 -82.1068 -116.37 -173.425 -4.36637 90.6903 -6.54289 15.1543 -0.278644 67.6113 5.83502 2.91112 19.8426 -8.17131 8.35075 173.021 -3.17996 89.937 -12.4156 -8.91599 -0.0331371 69.8194 -4.95677 2.08779 25.9879 1.24021 0.105084 0.512928 7.55758 -90.0039 11.7597 1.01835 -0.115246 0.0890983 1.01229 -0.159959 -22.4492 1.0059 0.196174 -2.43654 1.0059 0.196166 93.8649 -26.1072 -100.135 41.3932 -31.7499 -12.6053 -6.67193 -13.0443 -16.6678 -14.1365 0.107837 -6.232 -86.8473 -48.8972 83.2757 -21.7969 32.0439 -15.9122 9.34781 4.67545 -15.5867 -2.64852 -0.0927009 -6.48582 5.22024 0.565574 0.366001 -13.0727 0.630825 -1.65632 
47.4139 102.096 -256.641 -113.206 -82.3288 -115.996 -173.656 -3.70391 90.5109 -7.42456 12.7943 0.0109095 68.0984 5.93381 1.04155 20.9832 -5.90151 5.22728 172.915 -3.07628 89.9709 -12.2218 -9.89864 0.11206 69.232 -4.89696 0.414742 26.7335 0.677459 0.93604 0.326505 7.50586 -89.9923 11.8628 0.652958 -0.054394 0.191983 0.649935 -0.0830836 -22.3445 0.63911 0.144367 -2.33185 0.639117 0.144376 92.0898 -26.1708 -103.908 46.2722 -21.5218 -4.68674 -19.2288 -21.2525 -31.0586 -7.37952 -0.127679 -3.56924 -86.3007 -49.6478 84.2255 -23.0742 29.9365 -12.0496 10.9936 5.05999 -17.7562 -2.67666 -0.0930881 -3.46416 3.14062 1.81639 1.55369 -11.776 1.69451 -2.1855 
46.6749 102.113 -256.626 -112.333 -82.1974 -115.395 -173.855 -3.10483 90.6596 -8.59119 11.2381 0.44037 68.0439 5.29411 -1.54899 23.385 -6.80855 9.39431 172.947 -3.15951 90.1046 -12.1381 -9.6609 0.173629 69.3795 -5.14113 0.656026 26.7536 0.64281 1.03312 0.365669 7.53472 -89.9315 11.8044 0.759425 0.0557381 0.133673 0.761142 0.0222544 -22.4031 0.707557 0.281411 -2.39043 0.707562 0.281411 92.085 -27.133 -103.569 45.1165 -22.2393 -5.33754 -17.2975 -19.7568 -29.1 -7.34728 -0.0813183 -4.18112 -86.129 -48.3394 84.2854 -24.1647 28.6825 -11.6958 11.7682 5.96374 -17.972 -1.07623 -0.0663827 -2.89959 2.97461 1.53648 -0.104056 -12.0453 1.5951 -0.752248 
45.9353 101.96 -256.629 -110.722 -82.0371 -114.09 -173.619 -2.99107 90.9099 -8.6592 10.9645 0.250846 67.9565 5.50854 -1.77563 24.3781 -6.22478 9.31016 173.453 -2.77634 90.555 -13.0729 -9.1373 -0.214179 70.3681 -5.43554 0.718014 26.0053 1.04572 0.780056 0.426891 7.57554 -89.8963 11.7227 0.897758 0.11232 0.0520485 0.901837 0.0726909 -22.4852 0.822497 0.376959 -2.47261 0.822495 0.376958 92.0135 -27.1514 -103.711 44.9687 -21.6481 -5.32566 -17.8215 -20.1806 -29.6191 -7.96871 -0.131274 -3.50382 -86.1407 -47.7193 84.1704 -24.6703 27.065 -11.6687 12.2819 6.36836 -17.8847 -0.109492 -0.0517641 -2.37604 2.67566 1.33012 -0.273811 -11.7787 1.43626 -1.02731 
45.2242 101.67 -256.616 -112.996 -82.443 -116.7 -173.925 -2.05537 90.8433 -10.9176 10.5772 0.600351 69.0187 6.50201 -2.16329 25.0102 -6.06271 9.67305 173.175 -2.00304 90.5147 -15.1502 -9.27696 0.0832666 71.4364 -5.85309 0.0743641 25.9356 0.879872 1.49425 0.447479 7.62681 -89.7847 11.619 0.991027 0.326273 -0.0515721 1.00442 0.28232 -22.5887 0.847154 0.60905 -2.5761 0.847148 0.609037 92.0665 -28.2922 -103.206 44.722 -21.9918 -5.90907 -17.4423 -20.3787 -29.0347 -8.35579 -0.146856 -3.32511 -86.0837 -46.758 84.107 -25.0732 25.1254 -10.9907 12.8271 6.44589 -18.3052 -1.05899 -0.0713126 -2.69435 1.89134 0.800009 -2.08612 -11.0215 1.09635 0.327471 
44.5153 101.174 -256.683 -120.239 -82.6044 -123.823 -174.53 0.0321374 89.9444 -17.8848 9.60874 1.05169 70.9638 7.9879 -2.61964 26.8428 -5.31296 10.1646 172.841 -1.26012 90.863 -18.589 -8.7004 0.557445 73.3732 -6.29388 -0.030741 25.7063 0.822729 2.04442 0.526146 7.78431 -89.8541 11.3048 1.11506 0.179567 -0.365628 1.12189 0.13031 -22.904 1.00954 0.506428 -2.89133 1.00954 0.506419 92.0634 -27.3868 -103.525 45.4698 -22.3653 -5.51493 -18.3987 -22.2289 -29.7554 -8.4821 -0.237044 -2.04883 -85.9641 -48.2848 84.5299 -23.2719 24.1179 -10.7834 12.5015 4.62172 -19.1599 -1.79003 -0.0836288 -3.22534 1.15097 0.541105 -0.148041 -10.5268 0.644714 -1.38166 
